<svg xmlns="http://www.w3.org/2000/svg" width="20" height="20" aria-hidden="true" viewBox="0 0 24 24" fill="currentColor"><path d="M22.46 6c-.77.35-1.6.58-2.46.69a4.26 4.26 0 0 0 1.88-2.35 8.51 8.51 0 0 1-2.7 1.05A4.24 4.24 0 0 0 11.1 8a12.04 12.04 0 0 1-8.75-4.44 4.23 4.23 0 0 0 1.31 5.66c-.65-.02-1.26-.2-1.8-.49v.05c0 2.04 1.45 3.74 3.37 4.13a4.28 4.28 0 0 1-1.89.07 4.25 4.25 0 0 0 3.96 2.94A8.5 8.5 0 0 1 0 19.54a12.02 12.02 0 0 0 6.52 1.92c7.83 0 12.12-6.49 12.12-12.12l-.01-.55A8.6 8.6 0 0 0 24 5.1a8.54 8.54 0 0 1-2.54.7z"/></svg>