<svg xmlns="http://www.w3.org/2000/svg" width="20" height="20" aria-hidden="true" viewBox="0 0 24 24" fill="currentColor"><path d="M12 2C6.48 2 2 6.58 2 12.26c0 4.51 2.87 8.33 6.84 9.68.5.09.68-.22.68-.49 0-.24-.01-.87-.01-1.7-2.78.62-3.37-1.37-3.37-1.37-.45-1.18-1.1-1.49-1.1-1.49-.9-.63.07-.62.07-.62 1 .07 1.52 1.06 1.52 1.06.89 1.56 2.34 1.11 2.91.85.09-.66.35-1.11.63-1.36-2.22-.26-4.56-1.14-4.56-5.06 0-1.12.39-2.03 1.03-2.75-.1-.26-.45-1.32.1-2.75 0 0 .85-.28 2.78 1.05A9.33 9.33 0 0 1 12 6.84c.86 0 1.73.12 2.54.34 1.93-1.33 2.78-1.05 2.78-1.05.55 1.43.2 2.49.1 2.75.64.72 1.03 1.63 1.03 2.75 0 3.93-2.34 4.8-4.57 5.05.36.31.68.94.68 1.91 0 1.38-.01 2.49-.01 2.84 0 .27.18.58.69.48A10.02 10.02 0 0 0 22 12.26C22 6.58 17.52 2 12 2z"/></svg>